<svg xmlns="http://www.w3.org/2000/svg" fill="#333" viewBox="0 0 1024 1024"><path d="M691.89039421 540.67817878c43.66904497-27.04873681 72.67311216-75.60610771 72.67311216-130.35535812 0-84.73098278-68.76245141-153.4934342-153.4934342-153.49343419S457.57663797 325.59183789 457.57663797 409.99693227c0 55.07513881 29.00406718 103.3066213 72.67311217 130.35535813-83.4274292 32.58883953-142.41322875 113.40916157-142.41322875 208.24268459 0 11.73198223 9.45076346 20.8568573 20.8568573 20.85685731 11.73198223 0 20.8568573-9.45076346 20.85685729-20.8568573 0-100.04773736 81.47209883-181.51983619 181.51983619-181.5198362s181.51983619 81.47209883 181.51983619 181.5198362c0 11.73198223 9.45076346 20.8568573 20.8568573 20.85685729 11.73198223 0 20.8568573-9.45076346 20.8568573-20.8568573 0-94.50763464-59.31168795-175.65384508-142.41322875-207.91679621zM611.07007217 521.77665186C549.47716546 521.77665186 499.29035258 471.58983898 499.29035258 409.99693227s50.18681288-111.77971959 111.77971959-111.7797196 111.77971959 50.18681288 111.7797196 111.7797196S672.66297889 521.77665186 611.07007217 521.77665186zM339.27915048 717.96146584H244.77151585c-3.58477236 0-7.1695447-1.30355359-9.77665186-4.23654915-2.60710716-2.60710716-4.23654913-6.19187951-4.23654914-9.77665186V322.33295393c0-7.82132149 6.19187951-14.013201 14.013201-14.01320099h185.43049693c11.40609383-0.32588839 20.53096891-9.45076346 20.53096891-20.8568573s-9.12487507-20.53096891-20.53096891-20.85685731H252.26694894C217.39689064 266.60603833 189.04460025 294.63244033 189.04460025 329.50249863V696.77872014c0 34.8700583 28.3522904 63.22234869 63.22234869 63.22234869H339.27915048c11.08020545-0.32588839 20.20508051-9.77665186 20.20508052-20.8568573 0-11.73198223-8.79898668-20.8568573-20.20508051-21.18274569z"></path><path d="M399.56850362 354.92179346h-2.28121877H290.39589118c-12.38375903 0.97766519-22.16041088 11.08020545-22.16041087 23.78985286s9.77665186 22.81218768 22.16041087 23.78985285h110.15027762c12.05787062-1.30355359 21.50863409-11.08020545 21.5086341-23.46396446-0.97766519-12.70964742-10.42842865-22.81218768-22.48629928-24.11574124z m0 102.00306774L397.93906164 456.59897279h-0.6517768H290.39589118c-12.38375903 0.97766519-22.16041088 11.08020545-22.16041087 23.78985286s9.77665186 22.81218768 22.16041087 23.78985286h110.15027762c12.05787062-1.30355359 21.50863409-11.40609383 21.5086341-23.46396446-0.97766519-12.38375903-10.42842865-22.81218768-22.48629928-23.78985285zM290.72177958 608.46296502H400.22028041c12.05787062-1.30355359 21.50863409-11.40609383 21.50863409-23.46396448 0-12.38375903-9.45076346-22.48629927-21.50863409-23.46396446H290.39589118c-12.38375903 0.97766519-22.16041088 11.08020545-22.16041087 23.78985286s9.77665186 22.81218768 22.16041087 23.78985286h0.3258884z"></path></svg>