<svg xmlns="http://www.w3.org/2000/svg" fill="#666" viewBox="0 0 1024 1024"><path d="M511.04051022 570.62044626c-1.25080824 1.71822642-1.86162146 2.84023028-2.72752702 3.70663933C450.51466955 632.16212886 392.70277071 689.98408995 334.87275881 747.7874355c-12.4295933 12.42405893-27.22294288 16.48490918-43.95539757 11.0439433-29.50669963-9.59489737-38.2915401-47.00493478-16.29220634-69.16879557 31.01511615-31.24756703 62.22796649-62.29840628 93.35880534-93.43075459 27.12130835-27.12231482 54.24664209-54.24060424 81.36543499-81.36493199 0.7894279-0.7894279 1.52753604-1.63017656 3.0465183-3.25783768-1.37709667-0.9796153-2.78790405-1.71269157-3.86060011-2.78438214C391.34881847 451.68900013 334.18899036 394.52766255 277.03268415 337.36280307c-16.11107572-16.11308817-17.92993022-39.43819836-4.42260849-56.3824754 15.60189704-19.57167899 43.81954935-21.27933919 62.02520091-3.52299277 13.28543609 12.95738851 26.28257262 26.21062339 39.40650061 39.3335449 44.69501468 44.69048628 89.39153881 89.37946359 134.06391253 134.09259133 0.79244683 0.79295031 1.29156276 1.87822506 2.04929293 3.00827971 1.48829098-1.41382581 2.31394502-2.16400914 3.10186394-2.95192759C571.80785855 392.40088601 630.32667076 333.82974756 688.9204502 275.33408025c20.35557253-20.32135885 53.20111538-15.71610978 66.86742923 9.21200714 8.92924197 16.28767795 5.97832038 36.23369388-7.53000732 49.83610879-15.98428428 16.0949751-32.06466824 32.09485651-48.10429769 48.13549244-42.57830089 42.57930736-85.15710477 85.15811122-127.73238721 127.73993404-0.72251051 0.72251051-1.4092979 1.48074367-2.93482099 3.08827878 2.26212176 1.88627536 4.61480835 3.5587159 6.62837862 5.57027324 56.45694011 56.40511687 112.90281151 112.82180546 169.29182776 169.2943432 14.52517559 14.54681056 16.98201263 35.30690829 6.44322262 52.1460289-14.20014646 22.68914008-45.43362581 26.18798193-64.71801125 7.0590672-24.2297578-24.03504201-48.29247263-48.23863643-72.42512378-72.37179105C581.16879557 641.50545581 547.63093096 607.96708773 514.10816049 574.41312252 513.23823005 573.54268857 512.54590779 572.49464593 511.04051022 570.62044626z"></path></svg>