<svg xmlns="http://www.w3.org/2000/svg" fill="#333333" viewBox="0 0 1024 1024"><path d="M724.28674064 815.86599052L305.84943233 815.86599052c-13.20601109 0-22.74703991-10.70694865-22.74703991-23.90831455L283.10239179 550.56940206c0-13.20252687 9.54102945-23.90831457 22.74703991-23.90831457s22.74820152 10.70694865 22.74820151 23.90831457l0 219.80134641 372.94322849-1e-8L701.5408617 545.81630644c0-13.20601109 9.54102945-23.90831457 22.74703991-23.90831455s22.74703991 10.70230346 22.74703991 23.90831455l0 246.14136953C747.03378118 805.15904187 737.49275173 815.86599052 724.28674064 815.86599052L724.28674064 815.86599052z"></path><path d="M810.49741966 529.92194588c-6.12223806 0-12.2409919-2.15996982-16.9093145-6.47642656L510.90840245 262.06939244 231.19923929 520.69562149c-9.33780622 8.63523539-24.47733862 8.63523539-33.81514482 0.00348357-9.33780622-8.63291281-9.33780622-22.62742868 0-31.25918051L493.99908793 215.17829908c4.48600269-4.14574912 10.56643474-6.47642654 16.90931452-6.47642653 6.3393962 0 12.42331181 2.33067742 16.90466934 6.47642653L827.40208901 492.18866142c9.33780622 8.63291281 9.33432265 22.62742868 0 31.26034148C822.73376638 527.76197542 816.61501191 529.92194588 810.49741966 529.92194588L810.49741966 529.92194588z"></path></svg>