<svg xmlns="http://www.w3.org/2000/svg" fill="#333333" viewBox="0 0 1024 1024"><path d="M511.12109375 615.44726563c-62.2265625 0-120.67382813-24.2578125-164.70703125-68.20312501C302.38085937 503.2109375 278.2109375 444.76367187 278.2109375 382.53710937c0-62.2265625 24.2578125-120.67382813 68.203125-164.70703124 44.03320313-44.03320313 102.48046875-68.203125 164.70703125-68.20312501s120.67382813 24.2578125 164.70703125 68.203125c44.03320313 44.03320313 68.203125 102.48046875 68.20312499 164.70703126 0 62.2265625-24.2578125 120.67382813-68.20312499 164.70703124-44.03320313 43.9453125-102.48046875 68.203125-164.70703125 68.20312501z m0-413.17382813c-99.40429689 0-180.17578125 80.859375-180.17578125 180.17578125 0 99.40429689 80.859375 180.17578125 180.17578125 180.17578125s180.17578125-80.859375 180.17578125-180.17578125-80.77148438-180.17578125-180.17578125-180.17578125z"></path><path d="M230.31054687 848.70898438c-1.66992189 0-3.33984375-0.17578125-5.00976562-0.43945313-14.32617188-2.72460938-23.64257813-16.61132813-20.91796875-30.84960938 13.53515625-70.3125 51.41601563-134.38476563 106.69921875-180.43945312 27.50976563-22.93945313 58.359375-40.78125001 91.75781252-53.17382813 34.62890625-12.74414063 71.015625-19.24804688 108.19335936-19.24804687s73.65234375 6.50390625 108.19335937 19.24804687c33.3984375 12.3046875 64.3359375 30.234375 91.7578125 53.17382813 55.28320313 46.14257813 93.1640625 110.21484375 106.69921875 180.43945313 2.72460938 14.32617188-6.59179689 28.125-20.91796875 30.84960937-14.32617188 2.72460938-28.125-6.59179689-30.84960938-20.91796874C742.53710938 705.53515625 635.3984375 617.20507813 511.12109375 617.20507813c-124.27734375 0-231.41601563 88.41796875-254.97070313 210.14648436-2.37304688 12.56835938-13.44726563 21.35742188-25.83984374 21.35742189z"></path></svg>