<svg xmlns="http://www.w3.org/2000/svg" fill="#999999" viewBox="0 0 1024 1024"><path d="M127.488 399.30311111c0-23.21066667 14.67733333-37.77422222 37.888-37.77422223h165.09155556c23.32444445 0 37.888 14.56355555 37.888 37.77422223V564.05333333c0 23.21066667-14.56355555 37.888-37.888 37.888H165.376c-23.21066667 0-37.888-14.67733333-37.888-37.888V399.30311111zM127.488 693.30488888c0-23.32444445 14.67733333-37.888 37.888-37.888h165.09155556c23.32444445 0 37.888 14.56355555 37.888 37.888v164.75022223c0 23.32444445-14.56355555 37.888-37.888 37.888H165.376c-23.21066667 0-37.888-14.56355555-37.888-37.888V693.30488888zM421.83111112 693.30488888c0-23.32444445 14.67733333-37.888 38.00177777-37.888h164.97777778c23.32444445 0 38.00177778 14.56355555 38.00177778 37.888v164.75022223c0 23.32444445-14.67733333 37.888-38.00177778 37.888h-164.97777778c-23.32444445 0-38.00177778-14.56355555-38.00177777-37.888V693.30488888zM821.98755556 318.86222222L608.54044445 195.75466666c-30.15111111-17.29422222-59.96088889-9.67111111-77.25511111 20.02488889L408.74666667 425.69955555c-17.18044445 29.58222222-9.216 59.16444445 20.93511111 76.57244445L643.12888889 625.37955555c30.15111111 17.408 59.96088889 9.67111111 77.25511111-19.91111111l122.42488889-210.03377778c17.29422222-29.696 9.216-59.16444445-20.82133333-76.57244444z m-247.58044444 57.68533333c-44.48711111-6.03022222-73.15911111-41.52888889-73.15911112-41.52888889s35.84-19.456 85.44711112-13.76711111c40.39111111 7.85066667 70.656 36.29511111 70.656 36.29511111s-41.18755555 25.48622222-82.944 19.00088889zM703.88622222 225.56444444s38.68444445 20.13866667 79.64444445 17.86311111c48.58311111-6.25777778 77.25511111-33.45066667 77.25511111-33.45066667s-37.43288889-27.98933333-82.48888889-23.21066666c-42.89422222 3.75466667-74.41066667 38.79822222-74.41066667 38.79822222zM838.37155556 445.38311111s-8.30577778 41.41511111 5.68888889 79.872c20.25244445 44.82844445 54.95466667 65.64977778 54.95466667 65.64977777s16.384-42.21155555-1.36533334-83.85422222c-15.92888889-40.04977778-59.27822222-61.66755555-59.27822222-61.66755555z"></path></svg>