<svg xmlns="http://www.w3.org/2000/svg" width="30" height="30" fill="#666" viewBox="0 0 1879 1024"><path d="M950.42839442-92.18570467c-138.49913243 0-266.27080807 46.35793978-368.94789688 124.51512611-23.17896924 17.62367963-25.2861487 51.72166753-4.59748148 72.41033479 17.04899397 17.04899397 44.0591984 18.96461156 63.21537186 4.21435771 86.20277921-65.51411196 193.86047324-104.5927064 310.13844457-104.59270512 268.18642569 0 489.24866528 206.69510953 512.04451207 468.94312179 2.10717951 25.09458686-0.38312378 45.01700656-0.3831238 45.01700657l-120.68389216 0.95780814 146.54472658 291.94008061c12.64307439 0 195.20140521-293.08945063 195.20140523-293.08945063h-122.21638604c0.57468567-31.79924781-1.53249382-46.35793978-2.10717817-52.48791508-26.81864257-312.0540622-289.44977863-557.6362043-608.20850181-557.82776489zM950.42839442 1032.28166553c-283.51136391 0-513.96012834-230.64032635-513.96012839-513.96012835v-0.57468568l122.02482287-1.34093192-145.01223154-291.17383302-195.3929671 292.89788874h122.02482416C339.92115253 860.64235338 631.28654746 1128.82877905 950.42839442 1128.82877905c143.67129956 0 276.0404567-49.99761182 380.44160123-133.3269653 22.41272299-18.0068034 24.1367787-51.53010564 3.83123515-71.83565041-17.43211775-17.43211775-45.01700656-18.96461156-64.17318128-3.63967331-87.92683492 70.30315527-199.22420228 112.25517552-320.09965513 112.2551755z"></path></svg>