<svg xmlns="http://www.w3.org/2000/svg" fill="#666666" viewBox="0 0 1024 1024"><path d="M358.44201389 512.26367188c0 93.33984375 75.32226563 169.01367188 167.95898437 169.01367187s167.6953125-75.67382813 167.69531249-169.01367188S619.03771701 343.25 526.40099826 343.25s-167.95898438 75.67382813-167.95898437 169.01367188z m176.83593749-39.55078125s-20.91796875 40.4296875-57.3046875 54.75585936c-38.23242188 16.08398438-77.78320313 0.703125-77.78320311 0.70312501s19.42382813-32.95898438 61.61132812-51.59179688c36.03515625-12.74414063 73.4765625-3.8671875 73.47656249-3.86718751z m-76.55273437-138.07617188s40.078125-1.84570313 71.98242188-22.93945313c35.77148438-28.125 46.14257813-64.07226563 46.14257812-64.07226562s-42.80273438-5.18554688-76.72851562 19.95117188c-32.6953125 23.203125-41.39648438 67.06054688-41.39648438 67.06054687z m251.54296876 134.6484375s12.65625001 37.96875001 41.74804687 62.9296875c37.00195313 27.0703125 74.44335938 27.68554688 74.44335938 27.68554688s-6.59179689-42.27539063-40.078125-68.11523438c-31.46484375-25.22460938-76.11328125-22.50000001-76.11328125-22.5z"></path><path d="M164.64318577 532.47851564c0 93.33984375 75.05859375 169.01367188 167.95898436 169.01367186 22.93945313 0 44.64843751-4.5703125 64.77539064-12.91992188-49.65820313-33.3984375-83.75976563-89.91210938-89.12109375-155.12695312-7.03125002 5.71289063-15.11718749 10.8984375-23.99414063 14.32617188-38.49609375 16.08398438-77.95898438 0.703125-77.95898437 0.70312499s19.6875-32.95898438 61.875-51.76757812c14.23828125-5.00976562 28.56445313-6.59179689 40.95703125-6.59179688 5.625-48.1640625 27.0703125-91.0546875 58.53515623-122.69531249-11.33789063-2.4609375-22.93945313-3.8671875-34.98046873-3.8671875-92.98828125-0.08789063-168.046875 75.5859375-168.046875 168.92578124z m100.2832031-177.62695314s40.078125-1.84570313 71.80664064-22.93945313c35.94726563-28.125 46.31835938-64.07226563 46.31835938-64.07226563s-42.97851563-5.18554688-76.72851562 19.95117189c-32.6953125 23.203125-41.39648438 67.06054688-41.3964844 67.06054687z"></path></svg>