<svg xmlns="http://www.w3.org/2000/svg" fill="#333333" viewBox="0 0 1024 1024"><path d="M831.5 253.7c0-14.85-12.15-24.3-24.3-24.3-108 0-210.6-36.9-279.45-103.05-9.9-9.9-24.3-9.9-34.2 0-68.4 66.15-171.45 103.05-279.45 103.05-14.85 0-24.3 9.9-24.3 24.3v298.8c0 95.4 51.3 183.6 134.55 237.6l174.15 110.25c2.25 2.25 7.2 4.95 12.15 4.95s9.9-2.25 12.15-4.95l174.15-110.25c85.95-54 134.55-142.2 134.55-237.6l2.25-200.7-2.25-98.1z m-46.35 97.65l-2.25 200.7c0 78.3-41.85 152.1-112.5 196.2l-159.3 103.05-159.3-103.05c-71.1-44.1-112.5-117.45-112.5-196.2v-274.5c103.05-4.95 200.7-39.15 271.8-100.35 71.1 61.2 166.5 95.4 274.5 100.35v73.8z"></path><path d="M461.6 439.55c0 18.45 10.35 34.65 25.2 42.75-0.45 1.8-0.9 4.05-0.9 6.3v122.4c0 14.85 9.9 24.3 24.3 24.3 14.85 0 24.3-9.9 24.3-24.3v-122.4c0-2.25-0.45-4.05-0.9-6.3 14.85-8.55 25.2-24.3 25.2-42.75 0-27-22.05-49.05-49.05-49.05s-48.15 22.05-48.15 49.05z"></path></svg>